<svg width="1024" height="1024" viewBox="0 0 1024 1024" fill="none" xmlns="http://www.w3.org/2000/svg">
<g clip-path="url(#clip0_1_5)">
<rect width="1024" height="1024" rx="512" transform="matrix(-1 0 0 1 1024 0)" fill="white"/>
<circle cx="512" cy="512" r="432" fill="#25539E"/>
<rect x="995.11" y="498.057" width="20" height="36" fill="white"/>
<rect x="-18.8906" y="475.057" width="968" height="80" fill="white"/>
<rect x="-123" y="774.415" width="1037.64" height="80" transform="rotate(-15 -123 774.415)" fill="white"/>
<rect x="24.2163" y="1023.95" width="1108.4" height="80" transform="rotate(-30 24.2163 1023.95)" fill="white"/>
<rect x="-53.4838" y="188.862" width="1005.31" height="80" transform="rotate(15 -53.4838 188.862)" fill="white"/>
<path d="M51.7998 -70L1023.28 490.887L983.284 560.169L11.7998 -0.717987L51.7998 -70Z" fill="white"/>
</g>
<defs>
<clipPath id="clip0_1_5">
<rect width="1024" height="1024" rx="512" transform="matrix(-1 0 0 1 1024 0)" fill="white"/>
</clipPath>
</defs>
</svg>
